{
	"patcher" : 	{
		"fileversion" : 1,
		"rect" : [ 374.0, 447.0, 368.0, 315.0 ],
		"bglocked" : 0,
		"defrect" : [ 374.0, 447.0, 368.0, 315.0 ],
		"openrect" : [ 0.0, 0.0, 0.0, 0.0 ],
		"openinpresentation" : 0,
		"default_fontsize" : 12.0,
		"default_fontface" : 0,
		"default_fontname" : "Arial",
		"gridonopen" : 0,
		"gridsize" : [ 15.0, 15.0 ],
		"gridsnaponopen" : 0,
		"toolbarvisible" : 1,
		"boxanimatetime" : 200,
		"imprint" : 0,
		"enablehscroll" : 1,
		"enablevscroll" : 1,
		"devicewidth" : 0.0,
		"boxes" : [ 			{
				"box" : 				{
					"maxclass" : "comment",
					"text" : "Laisse passer valeurs lim de Tl du M1 quand on est en M1 et celles de M2 quand on est en M2",
					"linecount" : 4,
					"numoutlets" : 0,
					"patching_rect" : [ 170.0, 186.0, 150.0, 62.0 ],
					"id" : "obj-12",
					"fontname" : "Arial",
					"fontsize" : 12.0,
					"numinlets" : 1
				}

			}
, 			{
				"box" : 				{
					"maxclass" : "newobj",
					"text" : "t b f",
					"numoutlets" : 2,
					"patching_rect" : [ 92.0, 163.0, 35.0, 21.0 ],
					"outlettype" : [ "bang", "float" ],
					"id" : "obj-1",
					"fontname" : "Verdana",
					"fontsize" : 12.0,
					"numinlets" : 1
				}

			}
, 			{
				"box" : 				{
					"maxclass" : "newobj",
					"text" : "+ 0.",
					"numoutlets" : 1,
					"patching_rect" : [ 92.0, 193.0, 35.0, 21.0 ],
					"outlettype" : [ "float" ],
					"id" : "obj-2",
					"fontname" : "Verdana",
					"fontsize" : 12.0,
					"numinlets" : 2
				}

			}
, 			{
				"box" : 				{
					"maxclass" : "newobj",
					"text" : "t b f",
					"numoutlets" : 2,
					"patching_rect" : [ 32.0, 111.0, 40.0, 21.0 ],
					"outlettype" : [ "bang", "float" ],
					"id" : "obj-3",
					"fontname" : "Verdana",
					"fontsize" : 12.0,
					"numinlets" : 1
				}

			}
, 			{
				"box" : 				{
					"maxclass" : "newobj",
					"text" : "t b f",
					"numoutlets" : 2,
					"patching_rect" : [ 177.0, 113.0, 35.0, 21.0 ],
					"outlettype" : [ "bang", "float" ],
					"id" : "obj-4",
					"fontname" : "Verdana",
					"fontsize" : 12.0,
					"numinlets" : 1
				}

			}
, 			{
				"box" : 				{
					"maxclass" : "newobj",
					"text" : "* 1.",
					"numoutlets" : 1,
					"patching_rect" : [ 140.0, 143.0, 72.0, 21.0 ],
					"outlettype" : [ "float" ],
					"id" : "obj-5",
					"fontname" : "Verdana",
					"fontsize" : 12.0,
					"numinlets" : 2
				}

			}
, 			{
				"box" : 				{
					"maxclass" : "newobj",
					"text" : "* 1.",
					"numoutlets" : 1,
					"patching_rect" : [ 22.0, 141.0, 50.0, 21.0 ],
					"outlettype" : [ "float" ],
					"id" : "obj-6",
					"fontname" : "Verdana",
					"fontsize" : 12.0,
					"numinlets" : 2
				}

			}
, 			{
				"box" : 				{
					"maxclass" : "newobj",
					"text" : "expr 1. - $f1",
					"numoutlets" : 1,
					"patching_rect" : [ 32.0, 83.0, 92.0, 21.0 ],
					"outlettype" : [ "" ],
					"id" : "obj-7",
					"fontname" : "Verdana",
					"fontsize" : 12.0,
					"numinlets" : 1
				}

			}
, 			{
				"box" : 				{
					"maxclass" : "outlet",
					"numoutlets" : 0,
					"patching_rect" : [ 92.0, 222.0, 15.0, 15.0 ],
					"id" : "obj-8",
					"numinlets" : 1,
					"comment" : "(float) Panned Stream"
				}

			}
, 			{
				"box" : 				{
					"maxclass" : "inlet",
					"numoutlets" : 1,
					"patching_rect" : [ 177.0, 31.0, 15.0, 15.0 ],
					"outlettype" : [ "" ],
					"id" : "obj-9",
					"numinlets" : 0,
					"comment" : "(float) Panning Coefficient"
				}

			}
, 			{
				"box" : 				{
					"maxclass" : "inlet",
					"numoutlets" : 1,
					"patching_rect" : [ 140.0, 32.0, 15.0, 15.0 ],
					"outlettype" : [ "" ],
					"id" : "obj-10",
					"numinlets" : 0,
					"comment" : "(float) Right Stream"
				}

			}
, 			{
				"box" : 				{
					"maxclass" : "inlet",
					"numoutlets" : 1,
					"patching_rect" : [ 22.0, 33.0, 15.0, 15.0 ],
					"outlettype" : [ "" ],
					"id" : "obj-11",
					"numinlets" : 0,
					"comment" : "(float) Left Stream"
				}

			}
 ],
		"lines" : [ 			{
				"patchline" : 				{
					"source" : [ "obj-4", 1 ],
					"destination" : [ "obj-5", 1 ],
					"hidden" : 0,
					"midpoints" : [  ]
				}

			}
, 			{
				"patchline" : 				{
					"source" : [ "obj-4", 0 ],
					"destination" : [ "obj-5", 0 ],
					"hidden" : 0,
					"midpoints" : [  ]
				}

			}
, 			{
				"patchline" : 				{
					"source" : [ "obj-10", 0 ],
					"destination" : [ "obj-5", 0 ],
					"hidden" : 0,
					"midpoints" : [  ]
				}

			}
, 			{
				"patchline" : 				{
					"source" : [ "obj-9", 0 ],
					"destination" : [ "obj-4", 0 ],
					"hidden" : 0,
					"midpoints" : [  ]
				}

			}
, 			{
				"patchline" : 				{
					"source" : [ "obj-1", 1 ],
					"destination" : [ "obj-2", 1 ],
					"hidden" : 0,
					"midpoints" : [  ]
				}

			}
, 			{
				"patchline" : 				{
					"source" : [ "obj-2", 0 ],
					"destination" : [ "obj-8", 0 ],
					"hidden" : 0,
					"midpoints" : [  ]
				}

			}
, 			{
				"patchline" : 				{
					"source" : [ "obj-1", 0 ],
					"destination" : [ "obj-2", 0 ],
					"hidden" : 0,
					"midpoints" : [  ]
				}

			}
, 			{
				"patchline" : 				{
					"source" : [ "obj-6", 0 ],
					"destination" : [ "obj-2", 0 ],
					"hidden" : 0,
					"midpoints" : [  ]
				}

			}
, 			{
				"patchline" : 				{
					"source" : [ "obj-5", 0 ],
					"destination" : [ "obj-1", 0 ],
					"hidden" : 0,
					"midpoints" : [  ]
				}

			}
, 			{
				"patchline" : 				{
					"source" : [ "obj-3", 1 ],
					"destination" : [ "obj-6", 1 ],
					"hidden" : 0,
					"midpoints" : [  ]
				}

			}
, 			{
				"patchline" : 				{
					"source" : [ "obj-3", 0 ],
					"destination" : [ "obj-6", 0 ],
					"hidden" : 0,
					"midpoints" : [  ]
				}

			}
, 			{
				"patchline" : 				{
					"source" : [ "obj-11", 0 ],
					"destination" : [ "obj-6", 0 ],
					"hidden" : 0,
					"midpoints" : [  ]
				}

			}
, 			{
				"patchline" : 				{
					"source" : [ "obj-7", 0 ],
					"destination" : [ "obj-3", 0 ],
					"hidden" : 0,
					"midpoints" : [  ]
				}

			}
, 			{
				"patchline" : 				{
					"source" : [ "obj-9", 0 ],
					"destination" : [ "obj-7", 0 ],
					"hidden" : 0,
					"midpoints" : [  ]
				}

			}
 ]
	}

}
